<?xml version="1.0" standalone="no"?>
<!DOCTYPE svg PUBLIC "-//W3C//DTD SVG 20010904//EN"
 "http://www.w3.org/TR/2001/REC-SVG-20010904/DTD/svg10.dtd">
<svg version="1.0" xmlns="http://www.w3.org/2000/svg"
 width="512.000000pt" height="512.000000pt" viewBox="0 0 512.000000 512.000000"
 preserveAspectRatio="xMidYMid meet">
<metadata>
Created by potrace 1.11, written by Peter Selinger 2001-2013
</metadata>
<g transform="translate(0.000000,512.000000) scale(0.100000,-0.100000)"
fill="#000000" stroke="none">
<path d="M3158 5055 c-2 -1 -32 -6 -66 -9 -117 -12 -310 -50 -437 -85 -21 -6
-42 -8 -47 -5 -4 3 -8 1 -8 -4 0 -6 -17 -13 -37 -18 -45 -9 -41 -8 -76 -22
-16 -7 -34 -12 -41 -12 -6 0 -17 -5 -24 -12 -7 -7 -12 -9 -12 -6 0 4 -12 1
-27 -7 -15 -8 -30 -12 -35 -9 -4 3 -8 0 -8 -6 0 -6 -3 -9 -8 -6 -4 2 -23 -3
-42 -11 -19 -9 -41 -17 -49 -19 -8 -1 -18 -9 -22 -16 -5 -7 -9 -10 -9 -5 0 4
-18 -2 -40 -13 -22 -11 -40 -18 -40 -15 0 3 -9 1 -19 -5 -12 -6 -22 -6 -26 -1
-3 6 -13 9 -23 9 -9 0 -30 3 -47 6 -16 4 -39 9 -50 10 -11 2 -20 4 -20 6 0 1
-9 3 -20 5 -11 2 -33 6 -50 9 -16 3 -50 8 -75 11 -25 3 -56 8 -70 11 -50 10
-86 16 -117 16 -18 1 -33 4 -33 7 0 3 -26 6 -58 7 -31 1 -100 3 -153 4 -52 2
-100 0 -107 -4 -7 -4 -12 -2 -12 4 0 6 -5 8 -12 3 -7 -4 -28 -8 -46 -9 -32 -2
-61 -6 -142 -20 -19 -3 -58 -11 -87 -19 -28 -7 -54 -10 -57 -7 -3 3 -6 0 -6
-6 0 -6 -6 -9 -14 -6 -8 3 -17 0 -21 -5 -3 -6 -11 -9 -16 -6 -5 4 -9 1 -9 -4
0 -6 -3 -10 -7 -9 -14 3 -68 -15 -100 -33 -18 -10 -33 -15 -33 -11 0 4 -4 2
-8 -5 -4 -6 -14 -13 -22 -15 -8 -2 -25 -13 -39 -25 -14 -12 -28 -20 -33 -17
-4 3 -8 1 -8 -5 0 -6 -12 -17 -27 -25 -16 -8 -25 -15 -20 -16 4 0 -13 -20 -38
-44 -25 -25 -45 -50 -45 -55 0 -6 -4 -11 -10 -11 -5 0 -10 -7 -10 -15 0 -8 -3
-15 -8 -15 -8 0 -34 -55 -32 -66 1 -4 -3 -10 -10 -14 -6 -4 -12 -13 -14 -21
-1 -8 -8 -25 -16 -39 -7 -14 -12 -25 -10 -25 2 0 -2 -16 -8 -35 -6 -19 -14
-46 -16 -60 -3 -14 -5 -25 -6 -25 -2 0 -6 -24 -13 -86 -2 -20 -7 -41 -11 -48
-4 -6 -5 -15 -2 -20 3 -4 1 -22 -4 -40 -6 -22 -5 -31 3 -31 8 0 9 -3 1 -8 -5
-4 -10 -39 -10 -79 1 -40 -1 -73 -4 -73 -3 0 -5 -94 -5 -210 0 -115 -4 -210
-8 -210 -5 0 -5 -5 -1 -12 11 -17 10 -98 -1 -98 -7 0 -7 -3 0 -8 6 -4 10 -95
10 -237 0 -142 -4 -233 -10 -237 -7 -5 -7 -8 0 -8 6 0 10 -27 10 -60 0 -33 -4
-60 -8 -60 -5 0 -5 -5 -1 -12 11 -17 10 -98 -1 -98 -7 0 -7 -3 0 -8 6 -4 10
-25 10 -47 0 -22 -4 -43 -10 -47 -6 -5 -6 -8 2 -8 10 0 9 -16 -2 -55 -1 -5 -3
-14 -3 -19 0 -5 -5 -12 -10 -15 -19 -12 -80 -136 -101 -203 -51 -170 -44 -341
22 -508 32 -83 84 -171 119 -201 10 -9 18 -19 18 -23 0 -26 168 -148 257 -186
52 -22 62 -34 107 -127 6 -13 14 -23 19 -23 4 0 7 -4 7 -10 0 -5 16 -32 35
-59 19 -26 35 -52 35 -57 0 -5 9 -16 20 -24 11 -8 20 -18 20 -22 0 -4 8 -17
17 -29 43 -50 57 -66 88 -100 19 -20 31 -40 28 -43 -4 -3 -2 -6 4 -6 5 0 43
-33 85 -72 41 -40 88 -84 105 -98 74 -63 193 -150 221 -163 12 -6 22 -14 22
-19 0 -4 5 -8 11 -8 6 0 24 -9 40 -21 16 -11 29 -17 29 -14 0 4 7 -1 16 -9 8
-9 20 -14 25 -11 5 4 9 2 9 -3 0 -9 115 -69 130 -69 3 0 16 -6 30 -13 14 -8
28 -13 33 -12 4 1 7 -3 7 -8 0 -5 3 -9 8 -8 4 1 21 -4 37 -11 17 -7 37 -14 45
-16 8 -2 42 -13 75 -25 61 -21 200 -58 245 -65 14 -2 50 -9 80 -15 90 -18 196
-25 360 -25 139 0 293 10 309 19 3 2 29 6 57 10 27 3 102 19 165 36 145 38
136 35 189 55 25 9 50 17 55 18 6 2 16 6 23 10 6 5 12 5 12 0 0 -4 4 -2 8 4 4
7 17 14 27 16 30 5 105 41 105 49 0 5 7 8 15 8 13 0 96 42 121 61 6 5 14 6 17
2 4 -3 7 -1 7 5 0 7 6 12 14 12 8 0 16 3 18 8 2 4 28 23 58 41 30 19 64 43 76
53 11 10 24 15 27 11 4 -3 7 -1 7 5 0 6 19 24 43 41 23 16 59 45 80 65 20 20
37 33 37 30 0 -4 14 10 30 31 17 21 30 35 30 31 0 -3 9 3 20 14 11 11 20 24
20 30 0 5 7 10 15 10 8 0 15 3 15 8 0 7 35 49 91 109 16 17 29 36 29 41 0 5 7
13 16 16 9 4 14 9 11 12 -3 3 6 17 20 30 14 13 22 24 17 24 -5 0 -4 4 1 8 11
8 44 57 47 69 1 5 6 13 12 20 27 31 34 41 40 61 4 12 12 22 17 22 5 0 9 8 9
18 1 26 21 46 70 67 102 43 197 108 250 169 14 16 37 42 52 57 15 16 24 29 20
29 -4 0 -2 4 4 8 13 8 87 142 79 142 -3 0 1 12 8 27 66 131 64 390 -4 548 -7
17 -13 33 -14 38 -2 4 -4 10 -5 15 -1 4 -2 10 -1 15 0 4 -4 7 -10 7 -5 0 -15
14 -20 30 -6 17 -15 30 -20 30 -5 0 -9 6 -9 14 0 8 -5 16 -12 18 -14 5 -19
466 -6 484 5 7 8 16 7 20 -1 5 1 16 4 24 6 15 38 123 37 128 0 1 0 3 1 5 0 1
2 9 4 17 2 8 7 26 10 40 4 14 8 41 10 60 2 19 7 67 11 105 15 131 6 317 -21
465 -3 19 -12 57 -20 84 -8 27 -13 51 -10 54 2 3 -2 14 -10 24 -7 11 -11 27
-8 34 3 8 0 14 -6 14 -6 0 -11 8 -11 18 0 10 -3 22 -7 26 -4 3 -8 16 -10 27
-2 11 -11 34 -20 52 -9 18 -18 34 -18 37 0 3 -7 16 -15 30 -8 14 -15 27 -15
30 0 3 -6 15 -13 26 -6 12 -8 25 -4 29 4 5 1 5 -5 1 -8 -4 -13 -1 -13 8 0 9
-5 16 -11 16 -5 0 -7 5 -4 10 3 6 1 10 -4 10 -6 0 -11 5 -11 12 0 6 -11 26
-26 45 -14 18 -23 33 -20 33 4 0 -2 8 -11 18 -10 10 -27 31 -38 46 -11 16 -33
43 -50 61 -87 95 -136 145 -141 145 -4 0 -22 16 -40 36 -19 19 -34 33 -34 29
0 -3 -6 0 -14 7 -8 7 -12 16 -9 21 2 4 1 6 -4 5 -4 -2 -47 23 -95 55 -115 77
-298 169 -363 183 -5 1 -35 11 -67 22 -31 11 -59 18 -61 15 -3 -2 -14 0 -24 6
-43 22 -214 44 -375 46 -92 2 -168 2 -170 0z m-1381 -1300 c4 -5 19 -27 33
-47 14 -21 28 -38 33 -38 4 0 7 -7 7 -16 0 -8 5 -12 10 -9 6 3 10 1 10 -4 0
-6 15 -26 34 -46 19 -19 33 -35 31 -35 -2 0 13 -16 32 -35 19 -19 36 -35 38
-35 2 0 21 -16 43 -36 22 -20 43 -36 46 -35 3 0 18 -12 34 -27 36 -35 76 -66
82 -66 3 0 28 -14 57 -33 29 -18 63 -38 77 -45 15 -6 26 -15 26 -20 0 -4 3 -7
8 -6 9 2 125 -54 133 -65 3 -5 10 -9 15 -9 11 0 26 -6 132 -51 45 -19 82 -33
82 -31 0 3 14 -2 30 -11 17 -9 30 -12 30 -8 0 4 5 2 12 -5 7 -7 22 -12 35 -12
13 0 23 -5 23 -11 0 -5 4 -8 8 -5 5 3 21 -1 36 -9 18 -10 25 -10 20 -2 -5 9
-3 9 7 0 7 -7 26 -13 41 -13 15 0 28 -4 28 -8 0 -4 8 -9 18 -10 21 -2 57 -10
57 -12 0 -1 9 -3 19 -5 11 -2 31 -7 45 -11 59 -16 66 -12 62 36 -2 25 -5 59
-6 75 -2 17 -4 30 -5 30 -1 0 -3 18 -4 40 -7 85 -16 171 -20 190 -3 18 1 20
38 19 23 0 47 -3 52 -7 6 -3 19 -4 30 -3 10 2 24 1 29 -3 11 -6 24 -9 65 -14
14 -2 31 -7 38 -11 7 -4 16 -5 21 -1 5 3 12 1 16 -5 4 -6 11 -8 16 -5 5 4 9 2
9 -3 0 -5 6 -9 13 -10 28 -2 102 -26 108 -35 3 -5 10 -9 15 -9 14 0 137 -60
157 -76 9 -8 17 -11 17 -6 0 5 4 4 8 -1 4 -6 23 -22 43 -37 30 -22 37 -35 43
-75 10 -75 76 -283 98 -310 6 -7 8 -13 5 -13 -4 0 7 -26 23 -57 16 -31 27 -59
25 -62 -3 -2 -15 0 -28 6 -20 10 -40 17 -102 38 -11 3 -21 6 -22 6 -2 0 -23 8
-48 19 -25 11 -45 16 -45 13 0 -4 -5 -2 -12 5 -7 7 -18 12 -24 12 -7 0 -25 5
-41 12 -15 6 -30 12 -33 13 -3 0 -31 9 -62 18 -32 10 -75 18 -98 20 -22 1 -40
4 -40 7 0 3 -76 6 -169 6 -94 0 -168 -2 -166 -6 2 -3 -11 -5 -28 -5 -18 1 -45
-2 -62 -7 -16 -5 -42 -10 -56 -13 -44 -8 -136 -54 -168 -84 l-30 -29 -251 0
-250 -1 -25 25 c-50 50 -189 103 -285 110 -19 1 -37 3 -40 5 -11 5 -320 4
-320 -1 0 -3 -12 -5 -27 -4 -25 1 -43 -3 -113 -21 -8 -2 -15 -4 -15 -5 0 -1
-11 -4 -25 -6 -14 -3 -26 -9 -28 -14 -2 -5 -10 -6 -18 -3 -8 3 -20 1 -27 -4
-11 -9 -309 -113 -323 -113 -4 0 0 8 8 18 8 9 28 49 44 87 15 39 33 73 39 77
5 4 6 8 1 8 -5 0 -3 7 4 15 7 8 10 15 6 15 -3 0 1 16 9 36 8 20 17 46 20 58 2
11 9 39 14 61 6 22 12 54 15 70 3 17 8 41 11 55 13 63 19 154 18 262 l-2 117
58 53 c83 76 110 98 121 98 5 0 17 9 27 19 19 20 70 53 118 75 17 8 33 18 38
22 4 4 35 20 70 35 58 26 63 27 74 11 7 -9 16 -21 20 -27z m234 -1229 c109
-24 164 -68 152 -121 -3 -11 -5 -30 -6 -42 0 -13 -5 -23 -10 -23 -4 0 -5 -4
-2 -10 3 -5 1 -10 -6 -10 -7 0 -10 -3 -6 -6 6 -7 -19 -39 -90 -112 -29 -30
-53 -51 -53 -46 0 5 -4 4 -8 -2 -10 -14 -85 -59 -94 -56 -5 1 -8 -3 -8 -9 0
-5 -4 -8 -9 -4 -5 3 -12 1 -15 -4 -3 -4 -20 -12 -38 -16 -18 -4 -42 -10 -53
-13 -40 -11 -141 -5 -170 11 -101 52 -143 141 -149 314 -2 68 -1 74 24 97 55
48 151 64 360 61 85 -2 167 -6 181 -9z m1547 -7 c29 -7 64 -23 77 -35 13 -12
26 -20 28 -17 9 8 16 -63 12 -122 -2 -33 -4 -60 -5 -60 -2 0 -7 -20 -15 -57
-13 -62 -68 -133 -128 -165 -54 -28 -221 -17 -262 19 -5 4 -15 8 -22 8 -16 0
-136 78 -141 91 -2 5 -11 9 -20 9 -8 0 -13 2 -10 5 3 3 -13 24 -35 48 -41 44
-65 84 -70 114 -1 10 -6 23 -10 30 -4 6 -3 14 2 17 5 3 7 14 4 25 -3 11 6 29
21 46 14 15 26 25 26 21 0 -4 10 -1 23 6 26 14 36 17 102 24 28 4 52 8 54 10
10 10 320 -5 369 -17z m-826 -149 c1 -14 2 -33 1 -42 0 -10 4 -18 9 -18 4 0 8
-11 8 -25 0 -14 5 -25 11 -25 5 0 8 -4 4 -9 -3 -5 -1 -12 5 -16 6 -4 8 -11 5
-16 -4 -5 -1 -9 6 -9 7 0 9 -3 6 -7 -4 -3 0 -11 8 -17 7 -6 15 -17 17 -25 2
-8 23 -36 48 -62 25 -27 50 -55 56 -61 6 -7 26 -24 44 -38 18 -14 39 -30 45
-37 7 -7 15 -9 19 -6 3 4 6 2 6 -3 0 -5 17 -18 38 -29 20 -11 39 -22 42 -26 8
-9 90 -39 90 -33 0 3 7 -2 16 -10 8 -9 20 -14 25 -11 5 4 15 3 22 -2 6 -4 19
-9 27 -10 86 -17 152 -20 215 -10 22 4 49 8 60 10 11 1 22 4 25 7 3 3 30 18
62 33 86 43 156 126 200 237 34 85 45 137 50 225 2 30 7 55 12 55 17 0 91 -23
101 -32 5 -4 19 -8 32 -8 13 0 23 -5 23 -11 0 -5 4 -8 8 -5 5 3 20 -1 35 -9
15 -8 27 -11 27 -8 0 3 7 0 15 -7 8 -6 18 -9 23 -6 5 3 17 -3 26 -13 10 -11
13 -22 8 -25 -5 -3 -8 -19 -7 -36 1 -16 0 -30 -4 -30 -4 0 -8 -14 -9 -31 -1
-17 -7 -40 -13 -51 -6 -11 -8 -22 -5 -25 3 -4 0 -13 -7 -21 -10 -13 -9 -14 11
-3 13 7 21 15 19 18 -3 3 6 17 21 32 15 15 28 34 30 42 2 8 8 16 13 17 5 2 9
8 9 13 0 5 7 17 16 28 13 15 23 17 45 11 15 -5 30 -6 33 -2 3 3 6 0 6 -7 0 -7
4 -10 9 -7 4 3 19 -3 31 -14 12 -11 27 -17 31 -14 5 3 9 -2 9 -10 0 -9 4 -16
9 -16 11 0 48 -50 53 -71 2 -8 7 -17 11 -20 13 -9 20 -59 21 -134 1 -114 -52
-207 -146 -256 -21 -11 -38 -17 -38 -13 0 4 -6 2 -13 -4 -13 -11 -106 -10
-125 2 -19 12 -52 -16 -48 -41 3 -12 -2 -27 -10 -34 -8 -6 -14 -15 -14 -20 0
-4 -5 -20 -12 -36 -6 -15 -11 -31 -10 -35 1 -5 -3 -8 -9 -8 -5 0 -7 -4 -4 -10
3 -5 2 -10 -4 -10 -8 0 -23 -28 -26 -50 0 -3 -17 -31 -38 -63 -20 -31 -37 -62
-37 -67 0 -6 -3 -10 -8 -10 -4 0 -18 -18 -32 -40 -14 -22 -28 -40 -32 -40 -5
0 -8 -6 -8 -12 0 -14 -4 -18 -161 -178 -63 -63 -115 -113 -115 -110 -1 3 -16
-7 -33 -23 -17 -15 -31 -25 -31 -22 0 3 -8 -3 -19 -13 -34 -31 -65 -52 -78
-52 -7 0 -13 -4 -13 -10 0 -5 -7 -10 -15 -10 -8 0 -15 -4 -15 -8 0 -5 -17 -16
-37 -25 -21 -9 -45 -21 -53 -26 -27 -18 -115 -56 -122 -53 -5 1 -8 -2 -8 -6 0
-8 -77 -34 -94 -32 -5 1 -12 -2 -15 -7 -7 -10 -91 -38 -104 -35 -4 1 -16 -2
-26 -8 -10 -5 -33 -11 -50 -12 -17 -1 -31 -5 -31 -8 0 -3 -12 -6 -27 -6 -16
-1 -43 -4 -60 -8 -88 -17 -333 -28 -369 -15 -11 4 -27 3 -34 -1 -8 -5 -19 -6
-25 -2 -5 3 -19 7 -30 9 -67 7 -110 12 -110 13 0 2 -16 5 -60 13 -16 3 -45 10
-64 16 -19 6 -38 8 -42 5 -5 -3 -9 -1 -9 3 0 5 -10 10 -22 10 -13 1 -32 6 -43
12 -11 5 -36 14 -55 21 -75 26 -254 110 -258 121 -2 5 -8 9 -13 9 -12 0 -113
62 -117 72 -2 5 -8 6 -13 2 -5 -3 -9 2 -9 11 0 9 -4 13 -10 10 -5 -3 -10 -1
-10 4 0 6 -7 11 -15 11 -8 0 -15 5 -15 10 0 6 -7 13 -16 17 -33 13 -199 173
-269 259 -21 27 -44 52 -50 56 -5 4 -7 8 -3 8 4 0 -4 12 -17 26 -14 15 -25 33
-25 40 0 8 -3 14 -7 14 -8 0 -43 56 -42 67 0 3 -3 9 -8 12 -18 14 -91 161
-124 251 -16 46 -25 55 -41 43 -7 -5 -38 -9 -69 -9 -78 2 -145 35 -189 94 -19
26 -37 49 -40 52 -5 5 -8 16 -13 48 -1 9 -6 22 -9 27 -8 13 -3 118 7 155 3 14
7 31 9 38 1 7 10 22 19 32 9 11 15 20 12 20 -3 0 5 11 17 25 11 13 26 22 31
18 6 -3 7 -1 4 4 -4 6 4 18 18 27 14 9 25 13 25 9 0 -5 4 -2 9 5 5 8 20 15 35
15 14 1 26 5 26 8 0 3 11 4 25 1 14 -2 24 -7 21 -9 -3 -3 0 -10 5 -17 5 -6 23
-31 39 -56 16 -25 39 -56 50 -70 l20 -25 -2 28 c-1 15 -5 27 -8 27 -3 0 -6 17
-8 37 -1 20 -8 41 -15 45 -9 6 -8 8 3 8 11 0 11 3 2 12 -7 7 -12 28 -12 47 0
36 0 36 78 61 42 13 79 24 82 25 3 0 15 6 28 13 12 7 22 10 22 7 0 -3 13 1 30
10 52 27 65 21 67 -32 6 -136 59 -290 127 -368 14 -16 26 -34 26 -38 0 -5 5
-5 10 -2 6 3 10 2 10 -3 0 -13 77 -64 130 -85 69 -27 181 -38 255 -24 93 18
165 39 165 49 0 4 3 7 8 6 22 -6 159 76 217 130 14 13 25 20 25 17 0 -4 63 64
83 90 4 5 16 21 27 34 11 13 22 32 25 42 4 11 11 19 16 19 6 0 8 4 4 9 -3 5
-1 12 5 16 6 4 8 11 5 16 -4 5 -1 9 5 9 6 0 8 5 5 10 -3 6 -2 10 4 10 5 0 8 9
6 20 -2 11 0 22 5 25 4 3 7 17 5 31 -2 17 3 28 16 32 10 4 88 7 173 7 l156 0
2 -25z"/>
<path d="M2498 1754 c-2 -1 -21 -4 -43 -7 -54 -6 -125 -28 -125 -39 0 -4 -6
-8 -14 -8 -13 0 -31 -27 -28 -42 1 -5 -2 -8 -8 -8 -6 0 -5 -10 2 -26 12 -26
103 -78 119 -68 5 3 9 0 9 -6 0 -7 7 -10 15 -6 8 3 15 2 15 -2 0 -4 45 -7 100
-8 64 0 100 3 100 10 0 7 4 6 8 -1 6 -10 24 -7 75 11 36 13 69 21 72 18 3 -3
5 2 5 12 0 9 4 15 10 11 5 -3 16 8 25 25 9 17 11 30 5 30 -5 0 -9 3 -9 8 4 24
-7 35 -56 58 -31 14 -73 27 -93 30 -41 6 -180 12 -184 8z"/>
</g>
</svg>
